<svg xmlns="http://www.w3.org/2000/svg" viewBox="0 0 100 100" width="512" height="512"><path d="M30 2H70L98 30V70L70 98H30L2 70V30Z" fill="#1c2124"/><path d="M31 6H69L94 31V69L69 94H31L6 69V31Z" fill="none" stroke="#c09a48" stroke-width="2.5"/><path d="M33 11H67L89 33V67L67 89H33L11 67V33Z" fill="none" stroke="#e2bd66" stroke-width="1" opacity=".55"/><g transform="translate(23 23) scale(.105)"><path d="M253.8 15.6c-132.3 0-239.8 107.5-239.8 239.8s107.5 239.8 239.8 239.8c132.3 0 239.8-107.5 239.8-239.8S386.1 15.6 253.8 15.6zm0 17.9c122.7 0 221.9 99.2 221.9 221.9 0 30.7-6.3 60-17.5 86.6l-42.3-34.7c-49.6 14-110.3 9-138.9-60.9l-42 152.9c-8.8-45.5-23.3-81.3-47.9-115.2-19.7 13.9-32.4 32.6-39.7 51L88.9 237c-17.8 27.3-33.8 56.6-45 90.5-7.7-22.6-12-46.9-12-72.1 0-26 4.5-51 12.7-74.2 2.8 6.6 9.3 11.3 16.9 11.3 10.1 0 18.3-8.2 18.3-18.2s-8.2-18.3-18.3-18.3c-2.4 0-4.7.5-6.7 1.3 27.5-55.8 77.8-98.4 138.8-115.5-.6 1.9-.8 4-.8 6.1 0 12.1 9.8 22 22 22 12.1 0 22-9.9 22-22 0-5-1.7-9.6-4.5-13.3 7.1-.7 14.3-1.1 21.6-1.1zm18.8 27.7c-6.4 0-11.7 5.2-11.7 11.7 0 6.4 5.2 11.7 11.7 11.7 6.4 0 11.7-5.2 11.7-11.7 0-6.4-5.2-11.7-11.7-11.7zM198 90.2c-6 .1-12.1.9-18.2 2.5-38.9 10.4-62.1 50.5-51.6 89.4 10.4 38.9 50.5 62.1 89.4 51.6 21.7-5.8 38.5-20.8 47.3-39.7-6.8 7.4-15.7 13-26.2 15.8-29.5 7.9-59.8-9.6-67.7-39.1-7.9-29.5 9.6-59.8 39.1-67.7 10.4-2.8 20.9-2.4 30.5.5-12.3-8.6-27.1-13.4-42.6-13.2zm155.3.8c-9.4 0-17 7.6-17 17 0 9.4 7.6 17 17 17 9.4 0 17-7.6 17-17 0-9.4-7.6-17-17-17zm-248.9 27.4c-6.4 0-11.7 5.2-11.7 11.7 0 6.4 5.2 11.7 11.7 11.7s11.7-5.2 11.7-11.7c0-6.4-5.2-11.7-11.7-11.7zm275.7 40.8l-.6 29.8-28.2 9.8 28.2 9.8.6 29.8 18-23.8 28.6 8.6-17-24.5 17-24.5L398.1 183l-18-23.8zm-72.1 11.6c-6.4 0-11.7 5.2-11.7 11.7 0 6.4 5.2 11.7 11.7 11.7 6.4 0 11.7-5.2 11.7-11.7 0-6.4-5.2-11.7-11.7-11.7zm139 74.8c-6.4 0-11.7 5.2-11.7 11.7s5.2 11.7 11.7 11.7c6.4 0 11.7-5.2 11.7-11.7 0-6.4-5.2-11.7-11.7-11.7zm-127.3 3.5c-6.4 0-11.7 5.2-11.7 11.7s5.2 11.7 11.7 11.7c6.4 0 11.7-5.2 11.7-11.7 0-6.4-5.2-11.7-11.7-11.7z" fill="#e2bd66"/></g><circle cx="50" cy="4" r="1.6" fill="#c09a48"/><circle cx="96" cy="50" r="1.6" fill="#c09a48"/><circle cx="50" cy="96" r="1.6" fill="#c09a48"/><circle cx="4" cy="50" r="1.6" fill="#c09a48"/></svg>
