<svg xmlns="http://www.w3.org/2000/svg" viewBox="0 0 100 100" width="512" height="512"><path d="M30 2H70L98 30V70L70 98H30L2 70V30Z" fill="#1c2124"/><path d="M31 6H69L94 31V69L69 94H31L6 69V31Z" fill="none" stroke="#c09a48" stroke-width="2.5"/><path d="M33 11H67L89 33V67L67 89H33L11 67V33Z" fill="none" stroke="#e2bd66" stroke-width="1" opacity=".55"/><g transform="translate(23 23) scale(.105)"><path d="M387.29 19.115c-.677 24.348-8.15 49.273-22.194 71.834-36.935 59.335-110.622 86.083-178.93 70.61 4.218-1.997 8.274-4.09 12.098-6.292 39.055-22.5 57.282-55.456 54.312-91.69-7.387 21.813-24.63 41.317-50.226 56.067-48.05 27.68-118.013 31.686-187.47 16.935v37.377c36.274 13.19 81.88 12.965 122.397 3.98 3.21 2.057 6.526 4.02 9.98 5.872 76.52 40.974 174.19 17.537 220.173-51.855 40.442 14.673 84.808 19.944 127.32 16.393v-39.13c-36.858 3.595-75.196.774-111.385-9.015 9.5-26.662 10.486-54.666 3.924-81.088zm30.265 159.975c-28.534 12.307-59.168 14.074-87.434 10.355-19.252 10.658-41.5 18.6-64.68 23.393-44.056 9.11-91.918 6.655-129.426-14.018l78.47 175.914c11.298 12.252 24.03 25.506 42.043 41.3l.168.15.162.154c1.618 1.562 2.678 1.823 5.122 1.555 2.442-.27 5.967-1.672 9.325-4.012 3.358-2.34 6.532-5.546 8.62-8.542 1.157-1.658 1.87-3.22 2.304-4.4l-39.67-38.292 12.98-13.445 45.558 43.978.002.002c.225.22.092.432 2.248.006 2.162-.428 5.725-2.03 9.26-4.557 6.005-4.294 11.807-11.445 14.244-16.282l-39.188-37.828 12.98-13.446 45.098 43.533c11.69-2.624 21.136-10.836 25.237-20.322l-50-48.264 12.98-13.446 105.813 102.143c5.053 4.877 9.384 6.113 13.122 5.99 3.737-.123 7.224-1.832 9.85-4.63 5.25-5.598 7.5-13.944-1.985-23.1l-146.72-141.63 12.98-13.445 23.177 22.373c25.815-2.733 47.54-9.893 60.996-18.345 7.11-4.466 11.78-9.26 13.92-13.186 2.14-3.923 2.322-6.51.795-10.078-1.122-2.613-3.768-5.992-8.353-9.576z" fill="#e2bd66"/></g><circle cx="50" cy="4" r="1.6" fill="#c09a48"/><circle cx="96" cy="50" r="1.6" fill="#c09a48"/><circle cx="50" cy="96" r="1.6" fill="#c09a48"/><circle cx="4" cy="50" r="1.6" fill="#c09a48"/></svg>
