<svg xmlns="http://www.w3.org/2000/svg" viewBox="0 0 100 100" width="512" height="512"><path d="M30 2H70L98 30V70L70 98H30L2 70V30Z" fill="#1c2124"/><path d="M31 6H69L94 31V69L69 94H31L6 69V31Z" fill="none" stroke="#c09a48" stroke-width="2.5"/><path d="M33 11H67L89 33V67L67 89H33L11 67V33Z" fill="none" stroke="#c8372f" stroke-width="1" opacity=".55"/><g transform="translate(23 23) scale(.105)"><path d="M66.1 96l-21.2 10.6v212.5h42.5v-212.5L66.1 96zm95.6 0l-21.2 10.6v38.6c13-5 27.5-10.1 42.5-13.5v-25.1L161.7 96zM256 96l-19.9 10.6v167.3h42.5V106.6L256 96zm97 0l-21.2 10.6v25.1c15 3.4 29.5 8.5 42.5 13.5v-38.6L353 96zm93 0l-21.2 10.6v212.5h42.5v-212.5L445.9 96zm-231.1 53.1c-41.5 0-106 33.2-106 33.2l-.2 136.8h56.6l-5-5.6 54.7-30.7V149.1zm82.3 0v132.5l53.5 32.1-4.5 5.5h57.3l-.2-136.8s-64.6-33.2-106-33.2zm-61.1 146.1l-42.5 23.9 42.5 47.8h42.5l39.8-47.8-39.8-23.9h-42.5zm12.4 8.4L256 311.1l7.5-7.5 7.5 7.5-7.5 7.5 5.6 5.6 7.5 7.5-7.5 7.5-5.6 5.6 7.5 7.5-7.5 7.5-7.5-7.5-7.5 7.5-7.5-7.5 7.5-7.5-5.6-5.6-7.5-7.5 7.5-7.5 5.6-5.6-7.5-7.5 7.5-7.5zM256 326.1l-5.6 5.6 5.6 5.6 5.6-5.6-5.6-5.6zM23.6 340.4v42.5H86l-41.2-42.5h-21.2zm51.8 0l42.5 42.5h42.5l-42.5-42.5h-42.5zm73 0l42.5 42.5h23.9V372.3l-31.9-31.9h-34.5zm180.6 0l-31.9 31.9v10.6h23.9l42.5-42.5h-34.5zm65.1 0l-42.5 42.5h42.5l42.5-42.5h-42.5zm73 0L426 382.9h62.4v-42.5h-21.2zm-231.1 47.8v37.2L258.7 436l19.9-10.6v-37.2h-42.5zm-191.2 15.9v21.3L67.4 436l19.9-10.6v-21.2h-42.5zm379.8 0v21.3L447.3 436l19.9-10.6v-21.2h-42.5z" fill="#c8372f"/></g><circle cx="50" cy="4" r="1.6" fill="#c09a48"/><circle cx="96" cy="50" r="1.6" fill="#c09a48"/><circle cx="50" cy="96" r="1.6" fill="#c09a48"/><circle cx="4" cy="50" r="1.6" fill="#c09a48"/></svg>
