<svg xmlns="http://www.w3.org/2000/svg" viewBox="0 0 100 100" width="512" height="512"><path d="M30 2H70L98 30V70L70 98H30L2 70V30Z" fill="#1c2124"/><path d="M31 6H69L94 31V69L69 94H31L6 69V31Z" fill="none" stroke="#c09a48" stroke-width="2.5"/><path d="M33 11H67L89 33V67L67 89H33L11 67V33Z" fill="none" stroke="#62f08f" stroke-width="1" opacity=".55"/><g transform="translate(23 23) scale(.105)"><path d="M256 21c-66.7 0-121 54.3-121 121s54.3 121 121 121 121-54.3 121-121S322.7 21 256 21zm0 18c57 0 103 46 103 103s-46 103-103 103-103-46-103-103S199 39 256 39zm0 11.8l-69.4 52.1 10.8 14.4L256 73.3l58.6 44 10.8-14.4L256 50.8zm0 48l-69.4 52.1 10.8 14.4 58.6-43.9 58.6 44 10.8-14.4L256 98.8zm0 48l-69.4 52.1 10.8 14.4 58.6-43.9 58.6 44 10.8-14.4-69.4-52zM53.6 185l-7 14h66.9l-7-14H53.6zm352 0l-7 14h66.9l-7-14h-52.9zM41 217v46h78v-46H41zm352 0v46h78v-46h-78zM64 231h32v18H64v-18zm352 0h32v18h-32v-18zM38.5 281l-10 30h455l-10-30H38.5zM25 329v158h199v-87h64v87h199V329H25zm55 14h32v18H80v-18zm80 0h32v18h-32v-18zm80 0h32v18h-32v-18zm80 0h32v18h-32v-18zm80 0h32v18h-32v-18z" fill="#62f08f"/></g><circle cx="50" cy="4" r="1.6" fill="#c09a48"/><circle cx="96" cy="50" r="1.6" fill="#c09a48"/><circle cx="50" cy="96" r="1.6" fill="#c09a48"/><circle cx="4" cy="50" r="1.6" fill="#c09a48"/></svg>
