<svg xmlns="http://www.w3.org/2000/svg" viewBox="0 0 100 100" width="512" height="512"><path d="M30 2H70L98 30V70L70 98H30L2 70V30Z" fill="#1c2124"/><path d="M31 6H69L94 31V69L69 94H31L6 69V31Z" fill="none" stroke="#c09a48" stroke-width="2.5"/><path d="M33 11H67L89 33V67L67 89H33L11 67V33Z" fill="none" stroke="#c8372f" stroke-width="1" opacity=".55"/><g transform="translate(23 23) scale(.105)"><path d="M425.5 74.3c-8.9 0-16.3 6.2-18.2 14.5-8.6 3.7-15.2 10.6-19 18.8-5.3 11.2-6.8 24.6-7.2 39.3-.5 24.9 3 53.7 4.5 79-1.8 14.7-4.9 28.5-9.1 41.4 2.8 17.9 3.4 36.5.9 55.2-5 38.3-36.5 61.1-70.2 67.9-31 6.3-65.3.4-87.7-19.4-34.8 22.6-76.6 28.6-112.4 16.6-42 16.2-74.5 38.8-87.6 61.4H341.3c103.1 0 138-107.9 111.4-225.5 0 0 0 0-.1.1-5.7-40.9 1-70.4 14.9-88.9 2 .7 4.1 1.1 6.3 1.1 10.3 0 18.7-8.4 18.7-18.7 0-10.3-8.4-18.7-18.7-18.7-10.3 0-18.7 8.4-18.7 18.7 0 1 .1 2 .3 3-21.2 25.2-28.9 65.7-19.2 117.9-10.3 4.8-21.2 2.9-31.4-6.7-1.3-28-5.4-59.3-4.8-83.9.3-13.4 2.1-24.7 5.4-31.8 2.1-4.5 4.2-7.3 7.5-9 3.4 3.2 7.9 5.2 12.9 5.2 10.3 0 18.7-8.4 18.7-18.7 0-10.3-8.4-18.7-18.7-18.7zM193.3 106.3c-2.2 0-4.4 0-6.6.1-35.1 1.4-70.1 15.5-99.1 41.3-56.7 50.6-59.4 144.6-9.2 201.1 38.6 38.3 106.9 34.8 151.5-9.8 37.7-37.6 40.6-95 8.8-127-22.1-22.2-61-24.8-85.8 1.2-5.5 5.8-9 16-8.9 26.9.1 10.9 3.7 22 9.5 29.1 3.6 4.3 10.6 8.5 18.5 10.5 4.7 1.2 9.6 1.6 14.1 1.3 13.2-.2 26.2-9 26.2-26.6 0-15.7-10.3-24.4-21.9-26.3 7.8-.7 14.8.6 20.6 3.8 8.5 4.7 13.7 12.9 15.5 21.5 3.5 17-5.5 37.1-25.4 43.3l0 .1c-.2.1-.3.1-.5.1 0 0-.1.1-.1.1-10.6 3.8-22.2 3.6-33 .8-11-2.8-21.2-8.2-28.3-16.6-9.4-11.3-13.7-26.2-13.8-40.9-.1-14.7 4-29.5 14.1-40 32-33.5 83.3-31 112.6-1.5 40 40.2 35.3 109.4-8.8 153.4v0c-2.6 2.6-5.4 5.1-8.2 7.4 17 12.7 44 17.6 68.5 12.7 28.3-5.7 51.5-22.7 55.4-52.1 9.5-72.5-34.2-147.3-72.2-179.2-27.7-23.2-60.4-34.5-93.3-34.7z" fill="#c8372f"/></g><circle cx="50" cy="4" r="1.6" fill="#c09a48"/><circle cx="96" cy="50" r="1.6" fill="#c09a48"/><circle cx="50" cy="96" r="1.6" fill="#c09a48"/><circle cx="4" cy="50" r="1.6" fill="#c09a48"/></svg>
