<svg xmlns="http://www.w3.org/2000/svg" viewBox="0 0 100 100" width="512" height="512"><path d="M30 2H70L98 30V70L70 98H30L2 70V30Z" fill="#1c2124"/><path d="M31 6H69L94 31V69L69 94H31L6 69V31Z" fill="none" stroke="#c09a48" stroke-width="2.5"/><path d="M33 11H67L89 33V67L67 89H33L11 67V33Z" fill="none" stroke="#e2bd66" stroke-width="1" opacity=".55"/><g transform="translate(23 23) scale(.105)"><path d="M245.6 14.7v141.5c-27.7 6-48.9 38.4-48.9 77.5 0 15.6 3.4 30 9.2 42.2-3.2-3.3-6.4-6.9-9.4-11-33.5-45.3-33.5-121.9 0-167.2l-15-11.1c-39.3 53.1-39.3 136.4 0 189.5 2.5 3.4 5.2 6.7 8 9.7-55.3-22.4-93.4-72.2-93.4-129.4H77.4c0 61.7 38.4 115 94.4 141.9-21.2 7.2-40.5 17.2-57 29.3-36.3 26.7-59.6 64.4-59.6 106.5h18.7c0-35.2 19.3-67.4 52-91.4 16.3-12 35.9-21.8 57.8-28.6-2.2 2-4.3 4.2-6.3 6.4-42.5 46.4-42.5 120.8 0 167.2L191.1 475c-32.3-35.2-35.3-91-9.2-130.1 4.2 13.5 16.9 23.4 31.7 23.4 3.3 0 6.4-.5 9.4-1.4.5 1.8 1 3.6 1.8 5.3-4.6 6.2-7.3 13.9-7.3 22.3 0 14.8 8.5 27.6 20.9 33.7-.8-4.1-1.3-8.6-1.3-13.2 0-19.7 8-35.7 17.9-35.7 9.9 0 17.9 16 17.9 35.7 0 4.7-.5 9.2-1.3 13.3 12.4-6.1 20.9-18.9 20.9-33.7 0-8.2-2.7-15.8-7.1-22 .8-1.7 1.4-3.5 1.9-5.4 2.9.8 5.9 1.3 9 1.3 14.9 0 27.6-10 31.8-23.5 26.2 39.1 23.1 94.9-9.2 130.2l13.8 12.6c42.5-46.4 42.5-120.8 0-167.2-2-2.2-4.2-4.4-6.3-6.4 21.8 6.8 41.4 16.6 57.8 28.6 32.6 24 52 56.3 52 91.4h18.7c0-42.1-23.3-79.8-59.6-106.5-16.5-12.1-35.8-22.1-57-29.3 56-26.9 94.4-80.2 94.4-141.9h-18.7c0 57.3-38.1 107-93.4 129.4 2.8-3 5.4-6.2 8-9.7 39.3-53.1 39.3-136.4 0-189.5l-15 11.1c33.5 45.3 33.5 121.9 0 167.3-3 4-6.1 7.6-9.4 10.9 5.8-12.2 9.1-26.6 9.1-42.2 0-39.1-21.2-71.4-48.9-77.5V14.7h-18.7zm9.5 281.5c8.1 0 14.5 6.4 14.5 14.5 0 8.1-6.4 14.5-14.5 14.5-8.1 0-14.5-6.4-14.5-14.5 0-8.1 6.4-14.5 14.5-14.5zm-41.6 24.4c8.1 0 14.5 6.4 14.5 14.5 0 8.1-6.4 14.5-14.5 14.5-8.1 0-14.5-6.4-14.5-14.5s6.4-14.5 14.5-14.5zm82.8 0c8.1 0 14.5 6.4 14.5 14.5 0 8.1-6.4 14.5-14.5 14.5-8.1 0-14.5-6.4-14.5-14.5s6.4-14.5 14.5-14.5zm-41.2 23.9c8.1 0 14.5 6.4 14.5 14.5s-6.4 14.5-14.5 14.5c-8.1 0-14.5-6.4-14.5-14.5 0-8.1 6.4-14.5 14.5-14.5z" fill="#e2bd66"/></g><circle cx="50" cy="4" r="1.6" fill="#c09a48"/><circle cx="96" cy="50" r="1.6" fill="#c09a48"/><circle cx="50" cy="96" r="1.6" fill="#c09a48"/><circle cx="4" cy="50" r="1.6" fill="#c09a48"/></svg>
